<svg width="130" height="130" viewBox="0 0 130 130" fill="none" xmlns="http://www.w3.org/2000/svg">
<g clip-path="url(#clip0_91_15)">
<rect width="130" height="130" rx="25" fill="#FCFCFC"/>
<rect width="130" height="130" rx="24" fill="#F4CE14"/>
<path d="M81.144 61.392C86.072 62.8 89.944 65.168 92.76 68.496C95.576 71.824 96.984 75.664 96.984 80.016C96.984 84.048 95.352 87.856 92.088 91.44C88.888 94.96 84.856 97.776 79.992 99.888C75.192 102 70.616 103.056 66.264 103.056C63.064 103.056 59.928 102.896 56.856 102.576C51.736 102.256 47.768 102.096 44.952 102.096H32.76V99.12L41.784 92.016V33.648L31.8 30.384L33.72 26.544H44.856C50.68 26.544 56.408 26.352 62.04 25.968C66.392 25.712 69.592 25.584 71.64 25.584C75.928 25.584 79.704 26.416 82.968 28.08C86.232 29.744 88.728 32.016 90.456 34.896C92.248 37.712 93.144 40.88 93.144 44.4C93.144 47.6 92.024 50.672 89.784 53.616C87.608 56.496 84.728 59.024 81.144 61.2V61.392ZM80.184 49.2C80.184 44.144 78.84 40.016 76.152 36.816C73.464 33.616 69.464 32.016 64.152 32.016C60.312 32.016 56.856 33.104 53.784 35.28V60.72H67.512C71.48 60.72 74.584 59.728 76.824 57.744C79.064 55.696 80.184 52.816 80.184 49.104V49.2ZM68.952 96.048C73.56 96.048 77.208 94.896 79.896 92.592C82.648 90.288 84.024 87.184 84.024 83.28C84.024 78.288 82.552 74.256 79.608 71.184C76.728 68.112 72.408 66.48 66.648 66.288C66.2 66.352 65.592 66.384 64.824 66.384H53.784V93.552C58.072 95.28 63.128 96.144 68.952 96.144V96.048Z" fill="#3E363F"/>
<path d="M90.44 92.08V107.84H83.96V92.08H68.2V85.6H83.96V69.84H90.44V85.6H106.2V92.08H90.44Z" fill="#CC2936"/>
</g>
<defs>
<clipPath id="clip0_91_15">
<rect width="130" height="130" rx="25" fill="white"/>
</clipPath>
</defs>
</svg>
