<svg xmlns="http://www.w3.org/2000/svg" width="53" height="53" viewBox="0 0 53 53" fill="none">
  <path d="M26.5 35.3333C30.1589 35.3333 33.125 32.3672 33.125 28.7083C33.125 25.0495 30.1589 22.0833 26.5 22.0833C22.8411 22.0833 19.875 25.0495 19.875 28.7083C19.875 32.3672 22.8411 35.3333 26.5 35.3333Z" stroke="#3E363F" stroke-width="3"/>
  <path d="M21.5931 46.375H31.4069C38.2991 46.375 41.7463 46.375 44.2219 44.7519C45.29 44.0518 46.21 43.1484 46.9293 42.0931C48.5833 39.6639 48.5833 36.2785 48.5833 29.5122C48.5833 22.7436 48.5833 19.3605 46.9293 16.9313C46.21 15.876 45.2901 14.9725 44.2219 14.2725C42.6319 13.2279 40.64 12.8547 37.5902 12.7222C36.135 12.7222 34.8828 11.6401 34.598 10.2378C34.3802 9.21068 33.8146 8.29017 32.9966 7.6319C32.1786 6.97363 31.1584 6.61796 30.1084 6.62501H22.8916C20.7097 6.62501 18.8305 8.13772 18.402 10.2378C18.1172 11.6401 16.865 12.7222 15.4097 12.7222C12.3622 12.8547 10.3703 13.2301 8.77812 14.2725C7.71066 14.9727 6.79145 15.8761 6.07291 16.9313C4.41666 19.3605 4.41666 22.7436 4.41666 29.5122C4.41666 36.2785 4.41666 39.6617 6.07071 42.0931C6.78621 43.1442 7.70487 44.0474 8.77812 44.7519C11.2537 46.375 14.7009 46.375 21.5931 46.375Z" stroke="#3E363F" stroke-width="3"/>
  <path d="M41.9583 22.0833H39.75" stroke="#3E363F" stroke-width="3" stroke-linecap="round"/>
</svg>