<svg width="6" height="11" viewBox="0 0 6 11" fill="none" xmlns="http://www.w3.org/2000/svg">
<path id="Vector" fill-rule="evenodd" clip-rule="evenodd" d="M5.37629 4.98622C5.56376 5.12017 5.66929 5.30182 5.66929 5.49122C5.66929 5.68062 5.66929 5.84836 5.37629 5.99622L1.71929 10.0369C1.62704 10.1052 1.5167 10.1596 1.39469 10.197C1.27269 10.2344 1.14147 10.2541 1.00869 10.255C0.87591 10.2558 0.744231 10.2377 0.621335 10.2018C0.498438 10.1659 0.386786 10.1129 0.292893 10.0458C0.199 9.97872 0.124747 9.89897 0.0744663 9.81119C0.0241854 9.7234 -0.00111606 9.62934 3.7757e-05 9.5345C0.00119157 9.43966 0.0287779 9.34593 0.0811869 9.25879C0.133596 9.17164 0.209778 9.09282 0.305288 9.02693L3.25529 5.49122L0.305288 1.9555C0.12313 1.82079 0.0223355 1.64036 0.0246139 1.45307C0.0268924 1.26579 0.132061 1.08664 0.317469 0.954204C0.502877 0.82177 0.75369 0.74665 1.01589 0.745022C1.27808 0.743395 1.53069 0.815391 1.71929 0.945504L5.37629 4.98622Z" fill="#CC2936"/>
</svg>
