<svg xmlns="http://www.w3.org/2000/svg" width="42" height="42" viewBox="0 0 42 42" fill="none">
  <path d="M6.5625 17.3906V36.75C6.5625 37.0981 6.70078 37.4319 6.94692 37.6781C7.19306 37.9242 7.5269 38.0625 7.875 38.0625H15.75V26.9062C15.75 26.3841 15.9574 25.8833 16.3266 25.5141C16.6958 25.1449 17.1966 24.9375 17.7188 24.9375H24.2812C24.8034 24.9375 25.3042 25.1449 25.6734 25.5141C26.0426 25.8833 26.25 26.3841 26.25 26.9062V38.0625H34.125C34.4731 38.0625 34.8069 37.9242 35.0531 37.6781C35.2992 37.4319 35.4375 37.0981 35.4375 36.75V17.3906" stroke="#3E363F" stroke-width="3" stroke-linecap="round" stroke-linejoin="round"/>
  <path d="M39.375 21L21.8933 4.26563C21.4832 3.8325 20.5242 3.82758 20.1067 4.26563L2.625 21M32.8125 14.6836V5.25H28.875V10.9102" stroke="#3E363F" stroke-width="3" stroke-linecap="round" stroke-linejoin="round"/>
</svg>