<svg width="20" height="20" viewBox="0 0 20 20" fill="none" xmlns="http://www.w3.org/2000/svg">
<g id="bi:pin-fill" clip-path="url(#clip0_6_35)">
<path id="Vector" d="M5.1825 0.182501C5.24065 0.124499 5.30966 0.0785261 5.38559 0.0472115C5.46151 0.0158969 5.54287 -0.000145687 5.625 9.96867e-07H14.375C14.5408 9.96867e-07 14.6997 0.065849 14.8169 0.183059C14.9342 0.30027 15 0.459241 15 0.625001C15 1.475 14.5725 2.0925 14.1925 2.47375C14.035 2.63 13.88 2.75375 13.75 2.84625V8.385L13.8475 8.445C14.1012 8.60375 14.4425 8.8375 14.7863 9.13875C15.45 9.71875 16.25 10.6588 16.25 11.875C16.25 12.0408 16.1842 12.1997 16.0669 12.3169C15.9497 12.4342 15.7908 12.5 15.625 12.5H10.625V18.125C10.625 18.47 10.345 20 10 20C9.655 20 9.375 18.47 9.375 18.125V12.5H4.375C4.20924 12.5 4.05027 12.4342 3.93306 12.3169C3.81585 12.1997 3.75 12.0408 3.75 11.875C3.75 10.6588 4.55 9.71875 5.2125 9.13875C5.53587 8.85796 5.88301 8.60576 6.25 8.385V2.84625C6.09237 2.73464 5.94435 2.61004 5.8075 2.47375C5.4275 2.0925 5 1.47375 5 0.625001C4.99985 0.54287 5.0159 0.461515 5.04721 0.385588C5.07853 0.309661 5.1245 0.24065 5.1825 0.182501Z" fill="#3CBBB1"/>
</g>
<defs>
<clipPath id="clip0_6_35">
<rect width="20" height="20" fill="white"/>
</clipPath>
</defs>
</svg>
