<svg xmlns="http://www.w3.org/2000/svg" width="42" height="42" viewBox="0 0 42 42" fill="none">
  <path d="M6.125 19.25V24.5C6.125 31.0993 6.125 34.3997 8.176 36.449C10.2252 38.5 13.5257 38.5 20.125 38.5H21.875C28.4742 38.5 31.7747 38.5 33.824 36.449C35.875 34.3997 35.875 31.0993 35.875 24.5V19.25" stroke="#3E363F" stroke-width="3"/>
  <path d="M16.625 3.5H25.375L26.516 14.9047C26.5912 15.6743 26.5045 16.4511 26.2615 17.1852C26.0185 17.9193 25.6245 18.5944 25.105 19.1671C24.5855 19.7399 23.9519 20.1975 23.2449 20.5108C22.5379 20.824 21.7733 20.9858 21 20.9858C20.2267 20.9858 19.4621 20.824 18.7551 20.5108C18.0481 20.1975 17.4145 19.7399 16.895 19.1671C16.3755 18.5944 15.9815 17.9193 15.7385 17.1852C15.4955 16.4511 15.4088 15.6743 15.484 14.9047L16.625 3.5Z" stroke="#3E363F" stroke-width="3"/>
  <path d="M5.8275 9.36425C6.139 7.80675 6.29475 7.028 6.6115 6.39625C6.94154 5.73832 7.40625 5.15714 7.97545 4.69044C8.54466 4.22374 9.20564 3.88195 9.9155 3.68725C10.598 3.5 11.3925 3.5 12.9815 3.5H16.625L15.3562 16.1787C15.2893 16.9044 15.075 17.6087 14.7263 18.2485C14.3777 18.8884 13.9022 19.4504 13.3289 19.9002C12.7555 20.3499 12.0964 20.6779 11.3919 20.864C10.6874 21.0502 9.95231 21.0906 9.23164 20.9828C8.51098 20.875 7.8199 20.6212 7.20071 20.237C6.58152 19.8529 6.04725 19.3464 5.6306 18.7485C5.21396 18.1507 4.92371 17.4742 4.77762 16.7603C4.63154 16.0464 4.63269 15.3102 4.781 14.5967L5.8275 9.36425ZM36.1725 9.36425C35.861 7.80675 35.7053 7.028 35.3885 6.39625C35.0585 5.73832 34.5937 5.15714 34.0245 4.69044C33.4553 4.22374 32.7944 3.88195 32.0845 3.68725C31.402 3.5 30.6075 3.5 29.0185 3.5H25.375L26.6438 16.1787C26.7107 16.9044 26.925 17.6087 27.2737 18.2485C27.6223 18.8884 28.0978 19.4504 28.6711 19.9002C29.2445 20.3499 29.9036 20.6779 30.6081 20.864C31.3126 21.0502 32.0477 21.0906 32.7684 20.9828C33.489 20.875 34.1801 20.6212 34.7993 20.237C35.4185 19.8529 35.9528 19.3464 36.3694 18.7485C36.786 18.1507 37.0763 17.4742 37.2224 16.7603C37.3685 16.0464 37.3673 15.3102 37.219 14.5967L36.1725 9.36425Z" stroke="#3E363F" stroke-width="3"/>
  <path d="M16.625 37.625V32.375C16.625 30.7388 16.625 29.9215 16.9768 29.3125C17.2071 28.9135 17.5385 28.5821 17.9375 28.3518C18.5465 28 19.3637 28 21 28C22.6362 28 23.4535 28 24.0625 28.3518C24.4615 28.5821 24.7929 28.9135 25.0232 29.3125C25.375 29.9215 25.375 30.7388 25.375 32.375V37.625" stroke="#3E363F" stroke-width="3" stroke-linecap="round"/>
</svg>